<svg width="128" height="128" viewBox="0 0 128 128" fill="none" xmlns="http://www.w3.org/2000/svg"><rect width="128" height="128" rx="36" fill="url(#g)"/><path d="M38 80C44.5 89 54.1 93.5 66.8 93.5C80.6 93.5 91 86.4 91 75.1C91 65.9 85.3 61.4 73.7 57.8L60.7 53.8C54.5 51.9 51.8 49.7 51.8 45.7C51.8 40.9 56.5 37.7 63.7 37.7C71.3 37.7 77.1 40.9 82 47L90.4 39.1C84 30.9 75.3 27 64.1 27C49.9 27 39.3 34.9 39.3 46.1C39.3 55.1 44.7 60.7 56.4 64.2L69.2 68C75.3 69.8 78.1 72 78.1 75.9C78.1 80.5 73.9 83.2 66.8 83.2C58.1 83.2 51.2 79.4 45.9 72.1L38 80Z" fill="white"/><defs><linearGradient id="g" x1="0" y1="0" x2="128" y2="128" gradientUnits="userSpaceOnUse"><stop stop-color="#1267FF"/><stop offset="1" stop-color="#0FC6A6"/></linearGradient></defs></svg>
